<?xml version="1.0" standalone="no"?>
<!DOCTYPE svg PUBLIC "-//W3C//DTD SVG 20010904//EN"
 "http://www.w3.org/TR/2001/REC-SVG-20010904/DTD/svg10.dtd">
<svg version="1.0" xmlns="http://www.w3.org/2000/svg"
 width="700.000000pt" height="700.000000pt" viewBox="0 0 700.000000 700.000000"
 preserveAspectRatio="xMidYMid meet">
<metadata>
Created by potrace 1.11, written by Peter Selinger 2001-2013
</metadata>
<g transform="translate(0.000000,700.000000) scale(0.100000,-0.100000)"
fill="#000000" stroke="none">
<path d="M601 6980 c-50 -23 -86 -59 -108 -109 -13 -31 -15 -421 -15 -3361 0
-2337 3 -3337 11 -3365 13 -49 55 -96 109 -124 41 -21 44 -21 1054 -20 1115 1
1046 -3 1112 65 44 46 60 91 54 160 -6 69 -46 129 -108 160 l-45 23 -477 1
-478 0 0 1353 0 1352 1328 1328 1327 1327 208 0 207 0 1 -47 c0 -62 0 -923 0
-945 -1 -12 -9 -16 -28 -16 -162 4 -266 -153 -197 -298 19 -39 66 -82 106 -96
37 -13 35 -21 -7 -37 -75 -27 -126 -111 -119 -198 4 -54 19 -87 60 -133 l23
-25 -54 -87 c-113 -181 -200 -354 -293 -583 -11 -27 -30 -88 -42 -135 -22 -86
-24 -94 -35 -165 -7 -43 -8 -222 -1 -233 2 -4 6 -29 10 -57 25 -202 139 -402
292 -511 53 -38 156 -93 189 -101 6 -1 35 -9 65 -17 281 -76 602 -8 789 168
158 150 238 351 246 618 5 200 -56 413 -209 718 -35 69 -82 155 -104 193 -23
37 -42 70 -42 73 0 3 -13 24 -29 47 -41 61 -45 80 -20 103 42 38 62 93 56 158
-7 79 -44 131 -117 168 -34 17 -47 28 -35 28 31 0 97 47 125 88 21 31 25 49
25 109 0 63 -3 76 -30 115 -33 47 -101 88 -147 88 -33 0 -33 2 -11 38 30 46
84 91 186 154 105 65 135 97 152 166 33 130 -62 247 -201 247 -51 0 -69 -6
-123 -38 -34 -20 -64 -37 -66 -37 -1 0 -3 108 -2 240 l0 240 576 0 c364 0 590
4 613 10 59 17 122 87 133 150 4 19 7 231 7 470 0 376 -3 440 -16 473 -19 43
-68 93 -111 112 -25 11 -548 13 -2890 14 -2838 1 -2860 0 -2904 -19z m699
-3480 l0 -3090 -205 0 -205 0 0 3090 0 3090 205 0 205 0 0 -3090z m4810 2885
l0 -205 -2200 0 -2200 0 0 205 0 205 2200 0 2200 0 0 -205z m-3940 -1070
c-250 -250 -456 -455 -457 -455 -2 0 -3 205 -3 455 l0 455 457 0 457 0 -454
-455z m1610 452 c0 -1 -466 -468 -1035 -1037 l-1035 -1035 0 290 0 290 747
748 748 747 287 0 c159 0 288 -1 288 -3z m1255 -2053 c22 -37 47 -78 55 -93
219 -379 290 -570 284 -754 -6 -186 -65 -299 -189 -361 -63 -31 -98 -38 -200
-38 -222 -1 -354 113 -380 327 -20 163 14 306 127 543 76 159 241 442 256 442
4 0 25 -30 47 -66z"/>
</g>
</svg>
